{"title":"Texas Chainsaw.2013.CAM.XViD-BACKDOORS","uid":8052347,"size":1140674338,"categoryP":"video","categoryS":"movies","magnet":"?xt=urn:btih:c696c53b5028a57a3654748561b26f8263cb050f&amp;dn=Texas+Chainsaw.2013.CAM.XViD-BACKDOORS&amp;tr=udp%3A%2F%2Ftracker.openbittorrent.com%3A80&amp;tr=udp%3A%2F%2Fopen.demonii.com%3A1337&amp;tr=udp%3A%2F%2Ftracker.coppersurfer.tk%3A6969&amp;tr=udp%3A%2F%2Fexodus.desync.com%3A6969","seeders":1,"leechers":0,"uploader":"Acesn8s","files":-1,"time":1358882960,"description":"RELEASE NAME........:  Texas Chainsaw 2013 CAM XViD BACKDOORS\nFOLDER SIZE...........:  1.06 GiB\nVIDEO..............:  NOGRP  Thanks\nAUDIO...............:  NOGRP  Thanks\n\nVideo &amp; Audio:\n\nFormat                                   : AVI\nFormat/Info                              : Audio Video Interleave\nFile size                                : 1.04 GiB\nDuration                                 : 1h 26mn\nOverall bit rate                         : 1 732 Kbps\nWriting library                          : VirtualDub build 30091/release\n\nVideo\nID                                       : 0\nFormat                                   : MPEG-4 Visual\nFormat profile                           : Advanced Simple@L5\nFormat settings, BVOP                    : 2\nFormat settings, QPel                    : No\nFormat settings, GMC                     : No warppoints\nFormat settings, Matrix                  : Default (H.263)\nMuxing mode                              : Packed bitstream\nCodec ID                                 : XVID\nCodec ID/Hint                            : XviD\nDuration                                 : 1h 26mn\nBit rate                                 : 1 592 Kbps\nWidth                                    : 672 pixels\nHeight                                   : 272 pixels\nDisplay aspect ratio                     : 2.471\nFrame rate                               : 29.970 fps\nColor space                              : YUV\nChroma subsampling                       : 4:2:0\nBit depth                                : 8 bits\nScan type                                : Progressive\nCompression mode                         : Lossy\nBits/(Pixel*Frame)                       : 0.291\nStream size                              : 981 MiB (92%)\nWriting library                          : XviD 63\n\nAudio\nID                                       : 1\nFormat                                   : MPEG Audio\nFormat version                           : Version 1\nFormat profile                           : Layer 3\nMode                                     : Joint stereo\nMode extension                           : MS Stereo\nCodec ID                                 : 55\nCodec ID/Hint                            : MP3\nDuration                                 : 1h 26mn\nBit rate mode                            : Constant\nBit rate                                 : 128 Kbps\nChannel(s)                               : 2 channels\nSampling rate                            : 48.0 KHz\nCompression mode                         : Lossy\nStream size                              : 78.9 MiB (7%)\nAlignment                                : Split accross interleaves\nInterleave, duration                     : 33 ms (1.00 video frame)\nInterleave, preload duration             : 500 ms\nWriting library                          : LAME3.99r\nEncoding settings                        : -m j -V 4 -q 2 -lowpass 17 -b 128\n\nActors:\t\tAlexandra Daddario, Tania Raymonde, Scott Eastwood\n\nPlot: A young woman travels to Texas to collect an inheritance; little does she know that an encounter with a chainsaw-wielding killer is part of the reward. \t\n\nScreens:\n &lt;a href=&quot;\nhttp://www.shotpix.com/images/68593019710257856413.jpg&quot; rel=&quot;nofollow&quot; target=&quot;_NEW&quot;&gt;\nhttp://www.shotpix.com/images/68593019710257856413.jpg&lt;/a&gt;","torrent":{"xt":"urn:btih:c696c53b5028a57a3654748561b26f8263cb050f","amp;dn":"Texas+Chainsaw.2013.CAM.XViD-BACKDOORS","amp;tr":["udp%3A%2F%2Ftracker.openbittorrent.com%3A80","udp%3A%2F%2Fopen.demonii.com%3A1337","udp%3A%2F%2Ftracker.coppersurfer.tk%3A6969","udp%3A%2F%2Fexodus.desync.com%3A6969"],"infoHash":"c696c53b5028a57a3654748561b26f8263cb050f","infoHashBuffer":{"type":"Buffer","data":[198,150,197,59,80,40,165,122,54,84,116,133,97,178,111,130,99,203,5,15]},"announce":[],"urlList":[]}}